<svg xmlns="http://www.w3.org/2000/svg" viewBox="0 0 512 512">
  <path fill="#C8A96B" d="M256 0c-17.7 0-32 14.3-32 32V66.1C97.1 82.8 0 192.2 0 320c0 106 86 192 192 192c53.3 0 101.6-21.7 136.4-56.8C363.2 490.3 411.5 512 464.8 512c26.5 0 48-21.5 48-48s-21.5-48-48-48c-36.4 0-69.5 13.9-94.4 36.6c-4.9-5-10.1-9.9-15.6-14.5c41.3-43 65.2-101.8 65.2-166.1c0-127.8-97.1-237.2-224-253.9V32c0-17.7-14.3-32-32-32zm0 128A192 192 0 1 1 256 512 192 192 0 1 1 256 128zm0 64a128 128 0 1 0 0 256 128 128 0 1 0 0-256z"/>
</svg>
